<mxfile host="app.diagrams.net" agent="Mozilla/5.0 (Windows NT 10.0; Win64; x64) AppleWebKit/537.36 (KHTML, like Gecko) Chrome/141.0.0.0 Safari/537.36" version="28.2.7">
  <diagram name="Page-1" id="Ks1HHYipxOBt9I3BtVGs">
    <mxGraphModel dx="1426" dy="897" grid="1" gridSize="10" guides="1" tooltips="1" connect="1" arrows="1" fold="1" page="1" pageScale="1" pageWidth="850" pageHeight="1100" math="0" shadow="0">
      <root>
        <mxCell id="0" />
        <mxCell id="1" parent="0" />
        <mxCell id="nwL4Nzcs1jAHpflDbJwr-1" value="" style="rounded=0;whiteSpace=wrap;html=1;" vertex="1" parent="1">
          <mxGeometry x="80" y="40" width="720" height="130" as="geometry" />
        </mxCell>
        <mxCell id="nwL4Nzcs1jAHpflDbJwr-2" value="" style="rounded=0;whiteSpace=wrap;html=1;" vertex="1" parent="1">
          <mxGeometry x="645" y="75" width="130" height="50" as="geometry" />
        </mxCell>
        <mxCell id="nwL4Nzcs1jAHpflDbJwr-3" value="&lt;div&gt;&lt;font style=&quot;font-size: 21px;&quot;&gt;Admin Dashboard&lt;/font&gt;&lt;/div&gt;" style="text;html=1;whiteSpace=wrap;strokeColor=none;fillColor=none;align=center;verticalAlign=middle;rounded=0;" vertex="1" parent="1">
          <mxGeometry x="110" y="60" width="180" height="50" as="geometry" />
        </mxCell>
        <mxCell id="nwL4Nzcs1jAHpflDbJwr-4" value="Welcome, Admin" style="text;html=1;whiteSpace=wrap;strokeColor=none;fillColor=none;align=center;verticalAlign=middle;rounded=0;" vertex="1" parent="1">
          <mxGeometry x="120" y="100" width="140" height="30" as="geometry" />
        </mxCell>
        <mxCell id="nwL4Nzcs1jAHpflDbJwr-5" value="&lt;font style=&quot;font-size: 19px;&quot;&gt;Logout&lt;/font&gt;" style="text;html=1;whiteSpace=wrap;strokeColor=none;fillColor=none;align=center;verticalAlign=middle;rounded=0;" vertex="1" parent="1">
          <mxGeometry x="680" y="85" width="60" height="30" as="geometry" />
        </mxCell>
        <mxCell id="nwL4Nzcs1jAHpflDbJwr-7" value="" style="rounded=0;whiteSpace=wrap;html=1;" vertex="1" parent="1">
          <mxGeometry x="80" y="170" width="720" height="440" as="geometry" />
        </mxCell>
        <mxCell id="nwL4Nzcs1jAHpflDbJwr-8" value="Browsing history of product ...&amp;nbsp;" style="text;html=1;whiteSpace=wrap;strokeColor=none;fillColor=none;align=center;verticalAlign=middle;rounded=0;" vertex="1" parent="1">
          <mxGeometry x="100" y="180" width="230" height="30" as="geometry" />
        </mxCell>
        <mxCell id="nwL4Nzcs1jAHpflDbJwr-9" value="" style="rounded=0;whiteSpace=wrap;html=1;" vertex="1" parent="1">
          <mxGeometry x="110" y="230" width="510" height="30" as="geometry" />
        </mxCell>
        <mxCell id="nwL4Nzcs1jAHpflDbJwr-12" value="&lt;font style=&quot;font-size: 13px;&quot;&gt;Search by name or email&lt;/font&gt;" style="text;html=1;whiteSpace=wrap;strokeColor=none;fillColor=none;align=center;verticalAlign=middle;rounded=0;" vertex="1" parent="1">
          <mxGeometry x="100" y="240" width="190" height="10" as="geometry" />
        </mxCell>
        <mxCell id="nwL4Nzcs1jAHpflDbJwr-18" value="" style="rounded=0;whiteSpace=wrap;html=1;" vertex="1" parent="1">
          <mxGeometry x="110" y="280" width="660" height="280" as="geometry" />
        </mxCell>
        <mxCell id="nwL4Nzcs1jAHpflDbJwr-19" value="" style="rounded=0;whiteSpace=wrap;html=1;" vertex="1" parent="1">
          <mxGeometry x="110" y="275" width="660" height="40" as="geometry" />
        </mxCell>
        <mxCell id="nwL4Nzcs1jAHpflDbJwr-20" value="" style="rounded=0;whiteSpace=wrap;html=1;" vertex="1" parent="1">
          <mxGeometry x="110" y="360" width="660" height="40" as="geometry" />
        </mxCell>
        <mxCell id="nwL4Nzcs1jAHpflDbJwr-21" value="" style="rounded=0;whiteSpace=wrap;html=1;" vertex="1" parent="1">
          <mxGeometry x="110" y="440" width="660" height="40" as="geometry" />
        </mxCell>
        <mxCell id="nwL4Nzcs1jAHpflDbJwr-23" value="" style="rounded=0;whiteSpace=wrap;html=1;" vertex="1" parent="1">
          <mxGeometry x="110" y="520" width="660" height="40" as="geometry" />
        </mxCell>
        <mxCell id="nwL4Nzcs1jAHpflDbJwr-26" value="User" style="text;html=1;whiteSpace=wrap;strokeColor=none;fillColor=none;align=center;verticalAlign=middle;rounded=0;" vertex="1" parent="1">
          <mxGeometry x="120" y="285" width="60" height="30" as="geometry" />
        </mxCell>
        <mxCell id="nwL4Nzcs1jAHpflDbJwr-29" value="Last Return date" style="text;html=1;whiteSpace=wrap;strokeColor=none;fillColor=none;align=center;verticalAlign=middle;rounded=0;" vertex="1" parent="1">
          <mxGeometry x="330" y="285" width="80" height="30" as="geometry" />
        </mxCell>
        <mxCell id="nwL4Nzcs1jAHpflDbJwr-30" value="Return date" style="text;html=1;whiteSpace=wrap;strokeColor=none;fillColor=none;align=center;verticalAlign=middle;rounded=0;" vertex="1" parent="1">
          <mxGeometry x="432.5" y="285" width="60" height="30" as="geometry" />
        </mxCell>
        <mxCell id="nwL4Nzcs1jAHpflDbJwr-36" value="Text" style="text;html=1;whiteSpace=wrap;strokeColor=none;fillColor=none;align=center;verticalAlign=middle;rounded=0;" vertex="1" parent="1">
          <mxGeometry x="120" y="330" width="60" height="30" as="geometry" />
        </mxCell>
        <mxCell id="nwL4Nzcs1jAHpflDbJwr-37" value="Text" style="text;html=1;whiteSpace=wrap;strokeColor=none;fillColor=none;align=center;verticalAlign=middle;rounded=0;" vertex="1" parent="1">
          <mxGeometry x="200" y="330" width="60" height="30" as="geometry" />
        </mxCell>
        <mxCell id="nwL4Nzcs1jAHpflDbJwr-38" value="Text" style="text;html=1;whiteSpace=wrap;strokeColor=none;fillColor=none;align=center;verticalAlign=middle;rounded=0;" vertex="1" parent="1">
          <mxGeometry x="360" y="330" width="60" height="30" as="geometry" />
        </mxCell>
        <mxCell id="nwL4Nzcs1jAHpflDbJwr-39" value="Text" style="text;html=1;whiteSpace=wrap;strokeColor=none;fillColor=none;align=center;verticalAlign=middle;rounded=0;" vertex="1" parent="1">
          <mxGeometry x="440" y="330" width="60" height="30" as="geometry" />
        </mxCell>
        <mxCell id="nwL4Nzcs1jAHpflDbJwr-50" value="" style="triangle;whiteSpace=wrap;html=1;rotation=90;fillColor=#330000;" vertex="1" parent="1">
          <mxGeometry x="170" y="295" width="7.5" height="10" as="geometry" />
        </mxCell>
        <mxCell id="nwL4Nzcs1jAHpflDbJwr-54" value="" style="triangle;whiteSpace=wrap;html=1;rotation=90;fillColor=#330000;" vertex="1" parent="1">
          <mxGeometry x="252.5" y="295" width="7.5" height="10" as="geometry" />
        </mxCell>
        <mxCell id="nwL4Nzcs1jAHpflDbJwr-55" value="" style="triangle;whiteSpace=wrap;html=1;rotation=90;fillColor=#330000;" vertex="1" parent="1">
          <mxGeometry x="410" y="295" width="7.5" height="10" as="geometry" />
        </mxCell>
        <mxCell id="nwL4Nzcs1jAHpflDbJwr-56" value="" style="triangle;whiteSpace=wrap;html=1;rotation=90;fillColor=#330000;" vertex="1" parent="1">
          <mxGeometry x="492.5" y="295" width="7.5" height="10" as="geometry" />
        </mxCell>
        <mxCell id="nwL4Nzcs1jAHpflDbJwr-61" value="Borrowing date" style="text;html=1;whiteSpace=wrap;strokeColor=none;fillColor=none;align=center;verticalAlign=middle;rounded=0;" vertex="1" parent="1">
          <mxGeometry x="192.5" y="285" width="60" height="30" as="geometry" />
        </mxCell>
        <mxCell id="nwL4Nzcs1jAHpflDbJwr-63" value="&lt;div&gt;&lt;br&gt;&lt;/div&gt;&lt;div&gt;&lt;br&gt;&lt;/div&gt;" style="strokeWidth=1;html=1;shadow=0;dashed=0;shape=mxgraph.ios.iButtonBack;strokeColor=#444444;fontColor=#ffffff;buttonText=;fontSize=8;fillColor=#dddddd;fillColor2=#3D5565;spacingLeft=10;whiteSpace=wrap;align=center;sketch=0;" vertex="1" parent="1">
          <mxGeometry x="80" y="187.5" width="43.5" height="15" as="geometry" />
        </mxCell>
      </root>
    </mxGraphModel>
  </diagram>
</mxfile>
